<svg width="26" height="20" viewBox="0 0 26 20" fill="none" xmlns="http://www.w3.org/2000/svg">
<path d="M25.25 17.3437H0.75C0.6125 17.3437 0.5 17.4562 0.5 17.5937V19.3437C0.5 19.4812 0.6125 19.5937 0.75 19.5937H25.25C25.3875 19.5937 25.5 19.4812 25.5 19.3437V17.5937C25.5 17.4562 25.3875 17.3437 25.25 17.3437ZM2.17812 13.4312L3.41875 14.6656C3.51562 14.7625 3.675 14.7625 3.77187 14.6656L11.1062 7.35623L14.1562 10.3969C14.3442 10.583 14.598 10.6875 14.8625 10.6875C15.127 10.6875 15.3808 10.583 15.5688 10.3969L23.825 2.17186C23.9219 2.07498 23.9219 1.91561 23.825 1.81873L22.5844 0.581231C22.5374 0.534705 22.4739 0.508606 22.4078 0.508606C22.3417 0.508606 22.2782 0.534705 22.2313 0.581231L14.8656 7.92498L11.8125 4.88436C11.6246 4.69818 11.3708 4.59373 11.1062 4.59373C10.8417 4.59373 10.5879 4.69818 10.4 4.88436L2.17812 13.0781C2.15475 13.1012 2.13619 13.1287 2.12352 13.159C2.11085 13.1893 2.10433 13.2218 2.10433 13.2547C2.10433 13.2875 2.11085 13.32 2.12352 13.3503C2.13619 13.3807 2.15475 13.4082 2.17812 13.4312Z" fill="#364052"/>
</svg>
