<svg width="9" height="9" viewBox="0 0 9 9" fill="none" xmlns="http://www.w3.org/2000/svg">
<path d="M0 7.12525V9H1.87475L7.40399 3.47075L5.52925 1.59601L0 7.12525ZM8.8538 2.02095C8.90014 1.9747 8.93691 1.91976 8.962 1.85928C8.98709 1.7988 9 1.73397 9 1.6685C9 1.60302 8.98709 1.53819 8.962 1.47771C8.93691 1.41723 8.90014 1.36229 8.8538 1.31604L7.68396 0.146202C7.63771 0.0998567 7.58277 0.0630879 7.52229 0.0380006C7.46181 0.0129132 7.39698 0 7.33151 0C7.26603 0 7.2012 0.0129132 7.14072 0.0380006C7.08024 0.0630879 7.0253 0.0998567 6.97905 0.146202L6.06418 1.06108L7.93892 2.93582L8.8538 2.02095V2.02095Z" fill="#B7BFCC"/>
</svg>
