<svg width="26" height="24" viewBox="0 0 26 24" fill="none" xmlns="http://www.w3.org/2000/svg">
<path d="M24 5.70667V2.66667C24 1.2 22.8 0 21.3333 0H2.66667C1.95942 0 1.28115 0.280951 0.781048 0.781048C0.280951 1.28115 0 1.95942 0 2.66667V21.3333C0 22.0406 0.280951 22.7189 0.781048 23.219C1.28115 23.719 1.95942 24 2.66667 24H21.3333C22.8 24 24 22.8 24 21.3333V18.2933C24.403 18.0607 24.7382 17.7265 24.9721 17.3242C25.206 16.9219 25.3305 16.4654 25.3333 16V8C25.3305 7.53463 25.206 7.0781 24.9721 6.67578C24.7382 6.27345 24.403 5.93935 24 5.70667ZM22.6667 8V16H13.3333V8H22.6667ZM2.66667 21.3333V2.66667H21.3333V5.33333H13.3333C11.8667 5.33333 10.6667 6.53333 10.6667 8V16C10.6667 17.4667 11.8667 18.6667 13.3333 18.6667H21.3333V21.3333H2.66667Z" fill="#364052"/>
</svg>
